  0
SECTION
  2
HEADER
  9
$ACADVER
  1
AC1032
  0
ENDSEC
  0
SECTION
  2
CLASSES
  0
CLASS
  0
ENDSEC
  0
SECTION
  2
TABLES
  0
TABLE
  2
LAYER
  5
2
330
0
100
AcDbSymbolTable
 70
    28
  0
LAYER
  5
10
330
2
100
AcDbSymbolTableRecord
100
AcDbLayerTableRecord
  2
0
 70
     0
 62
     7
  6
Continuous
370
    -3
390
F
347
47
348
0
  0
LAYER
  5
97
330
2
100
AcDbSymbolTableRecord
100
AcDbLayerTableRecord
  2
Defpoints
 70
     0
 62
     7
  6
Continuous
290
     0
370
    -3
390
F
347
47
348
0
  0
LAYER
  5
98
330
2
100
AcDbSymbolTableRecord
100
AcDbLayerTableRecord
  2
32_color_black
 70
     0
 62
   250
  6
Continuous
370
     0
390
F
347
47
348
0
  0
LAYER
  5
9D
330
2
100
AcDbSymbolTableRecord
100
AcDbLayerTableRecord
  2
30_color_green
 70
     0
 62
   114
420
  2140502
  6
Continuous
370
    -3
390
F
347
47
348
0
  0
LAYER
  5
9E
330
2
100
AcDbSymbolTableRecord
100
AcDbLayerTableRecord
  2
31_color_white
 70
     0
 62
   255
  6
Continuous
370
    -3
390
F
347
47
348
0
  0
LAYER
  5
A0
330
2
100
AcDbSymbolTableRecord
100
AcDbLayerTableRecord
  2
61_labeling
 70
     0
 62
   114
420
  2140502
  6
Continuous
370
    -3
390
F
347
47
348
0
  0
LAYER
  5
A1
330
2
100
AcDbSymbolTableRecord
100
AcDbLayerTableRecord
  2
50_type_name
 70
     0
 62
   114
420
  2140502
  6
Continuous
370
    -3
390
F
347
47
348
0
  0
LAYER
  5
A2
330
2
100
AcDbSymbolTableRecord
100
AcDbLayerTableRecord
  2
33_color_yellow
 70
     0
 62
    40
  6
Continuous
370
    -3
390
F
347
47
348
0
  0
LAYER
  5
A3
330
2
100
AcDbSymbolTableRecord
100
AcDbLayerTableRecord
  2
63_luminaire_ID
 70
     1
 62
   114
420
  2140502
  6
Continuous
370
    -3
390
F
347
47
348
0
  0
LAYER
  5
A5
330
2
100
AcDbSymbolTableRecord
100
AcDbLayerTableRecord
  2
10_
 70
     0
 62
   114
420
  2140502
  6
Continuous
370
    -3
390
F
347
47
348
0
  0
LAYER
  5
A6
330
2
100
AcDbSymbolTableRecord
100
AcDbLayerTableRecord
  2
11_system
 70
     0
 62
   114
420
  2140502
  6
Continuous
370
    -3
390
F
347
47
348
0
  0
LAYER
  5
A7
330
2
100
AcDbSymbolTableRecord
100
AcDbLayerTableRecord
  2
51_typenumber
 70
     0
 62
   114
420
  2140502
  6
Continuous
370
    -3
390
F
347
47
348
0
  0
LAYER
  5
A8
330
2
100
AcDbSymbolTableRecord
100
AcDbLayerTableRecord
  2
52_info
 70
     0
 62
   114
420
  2140502
  6
Continuous
370
    -3
390
F
347
47
348
0
  0
LAYER
  5
A9
330
2
100
AcDbSymbolTableRecord
100
AcDbLayerTableRecord
  2
70_legend_green
 70
     0
 62
   114
420
  2140502
  6
Continuous
370
    -3
390
F
347
47
348
0
  0
LAYER
  5
AA
330
2
100
AcDbSymbolTableRecord
100
AcDbLayerTableRecord
  2
99_general
 70
     1
 62
   114
420
  2140502
  6
Continuous
370
    -3
390
F
347
47
348
0
  0
LAYER
  5
AB
330
2
100
AcDbSymbolTableRecord
100
AcDbLayerTableRecord
  2
53_additional_1
 70
     0
 62
   114
420
  2140502
  6
Continuous
370
    -3
390
F
347
47
348
0
  0
LAYER
  5
AC
330
2
100
AcDbSymbolTableRecord
100
AcDbLayerTableRecord
  2
54_additional_2
 70
     0
 62
   114
420
  2140502
  6
Continuous
370
    -3
390
F
347
47
348
0
  0
LAYER
  5
AD
330
2
100
AcDbSymbolTableRecord
100
AcDbLayerTableRecord
  2
70_legend_white
 70
     0
 62
     7
  6
Continuous
370
    -3
390
F
347
47
348
0
  0
LAYER
  5
AE
330
2
100
AcDbSymbolTableRecord
100
AcDbLayerTableRecord
  2
10_yellow
 70
     0
 62
    40
  6
Continuous
370
    -3
390
F
347
47
348
0
  0
LAYER
  5
AF
330
2
100
AcDbSymbolTableRecord
100
AcDbLayerTableRecord
  2
70_legend_yellow
 70
     0
 62
    40
  6
Continuous
370
    -3
390
F
347
47
348
0
  0
LAYER
  5
B0
330
2
100
AcDbSymbolTableRecord
100
AcDbLayerTableRecord
  2
34_color_sperr
 70
     0
 62
    10
  6
Continuous
370
    -3
390
F
347
47
348
0
  0
LAYER
  5
B1
330
2
100
AcDbSymbolTableRecord
100
AcDbLayerTableRecord
  2
XRef
 70
     4
 62
     8
  6
Continuous
370
     0
390
F
347
47
348
0
  0
LAYER
  5
B2
330
2
100
AcDbSymbolTableRecord
100
AcDbLayerTableRecord
  2
40_UMRISS
 70
     1
 62
   250
  6
Continuous
290
     0
370
    -3
390
F
347
47
348
0
  0
LAYER
  5
B3
330
2
100
AcDbSymbolTableRecord
100
AcDbLayerTableRecord
  2
34_color_red
 70
     0
 62
    10
  6
Continuous
370
    -3
390
F
347
47
348
0
  0
LAYER
  5
B4
330
2
100
AcDbSymbolTableRecord
100
AcDbLayerTableRecord
  2
REMARKS
 70
     0
 62
   190
  6
Continuous
370
     0
390
F
347
47
348
0
  0
LAYER
  5
B5
330
2
100
AcDbSymbolTableRecord
100
AcDbLayerTableRecord
  2
10_white
 70
     0
 62
     7
  6
Continuous
370
    -3
390
F
347
47
348
0
  0
LAYER
  5
B6
330
2
100
AcDbSymbolTableRecord
100
AcDbLayerTableRecord
  2
12_modules
 70
     0
 62
   114
420
  2140502
  6
Continuous
370
    -3
390
F
347
47
348
0
  0
ENDTAB
  0
ENDSEC
  0
SECTION
  2
BLOCKS
  0
BLOCK
  5
2C59
330
B7
100
AcDbEntity
  8
0
100
AcDbBlockBegin
  2
STANDARD_SL
 70
     2
 10
0.0
 20
0.0
 30
0.0
  3
STANDARD_SL
  1

  0
HATCH
  5
E8
330
B7
100
AcDbEntity
  8
0
100
AcDbHatch
 10
0.0
 20
0.0
 30
0.0
210
0.0
220
0.0
230
1.0
  2
SOLID
 70
     1
 71
     0
 91
        2
 92
        1
 93
        3
 72
     1
 10
-0.000000000000739
 20
-164.9911416942843
 11
-326.4183070866112
 21
0.00000000000108
 72
     1
 10
-326.4183070866112
 20
0.0000000000011084
 11
-326.4183070866255
 21
-329.9822833885714
 72
     1
 10
-326.4183070866256
 20
-329.9822833885715
 11
-0.000000000000739
 21
-164.9911416942844
 97
        0
 92
        1
 93
        3
 72
     1
 10
326.4183070866164
 20
-329.9822833885715
 11
326.4183070866163
 21
-0.0000000000012506
 72
     1
 10
326.4183070866163
 20
-0.0000000000011653
 11
-0.000000000000739
 21
-164.9911416942844
 72
     1
 10
-0.0000000000006821
 20
-164.9911416942844
 11
326.4183070866163
 21
-329.9822833885715
 97
        0
 75
     1
 76
     1
 98
        2
 10
-201.7115752991709
 20
-201.914870628725
 10
118.6771251745169
 20
-182.3154832900236
450
        0
451
        0
460
0.0
461
0.0
452
        0
462
0.0
453
        2
463
0.0
 63
     5
421
      255
463
1.0
 63
     2
421
 16776960
470
LINEAR
1001
GradientColor1ACI
1070
     5
1001
GradientColor2ACI
1070
     2
1001
ACAD
1010
0.0
1020
0.0
1030
0.0
  0
HATCH
  5
EB
330
B7
100
AcDbEntity
  8
31_color_white
100
AcDbHatch
 10
0.0
 20
0.0
 30
0.0
210
0.0
220
0.0
230
1.0
  2
SOLID
 70
     1
 71
     0
 91
        2
 92
        1
 93
        3
 72
     1
 10
-326.4183070866112
 20
0.0000000000011084
 11
0.0000000000000568
 21
-164.9911416942839
 72
     1
 10
0.0
 20
-164.9911416942839
 11
326.4183070866163
 21
-0.0000000000011369
 72
     1
 10
326.4183070866163
 20
-0.0000000000011653
 11
-326.4183070866114
 21
0.0000000000010775
 97
        0
 92
        1
 93
        3
 72
     1
 10
326.4183070866163
 20
-329.9822833885715
 11
0.0000000000000568
 21
-164.991141694284
 72
     1
 10
0.0000000000000568
 20
-164.9911416942839
 11
-326.4183070866256
 21
-329.9822833885714
 72
     1
 10
-326.4183070866256
 20
-329.9822833885715
 11
326.4183070866163
 21
-329.9822833885715
 97
        0
 75
     1
 76
     1
 98
        2
 10
-62.94912079899098
 20
-46.57157940444418
 10
12.60739704665474
 20
-302.8154203338559
450
        0
451
        0
460
0.0
461
0.0
452
        0
462
0.0
453
        2
463
0.0
 63
     5
421
      255
463
1.0
 63
     2
421
 16776960
470
LINEAR
1001
GradientColor1ACI
1070
     5
1001
GradientColor2ACI
1070
     2
1001
ACAD
1010
0.0
1020
0.0
1030
0.0
  0
LWPOLYLINE
  5
ED
330
B7
100
AcDbEntity
  8
32_color_black
100
AcDbPolyline
 90
        4
 70
     1
 43
0.0
 10
-326.418307086626
 20
-329.982283388572
 10
-326.418307086611
 20
0.000000000001
 10
326.418307086616
 20
-0.000000000001
 10
326.418307086616
 20
-329.982283388572
  0
LINE
  5
F0
330
B7
100
AcDbEntity
  8
32_color_black
100
AcDbLine
 10
-326.418307086611
 20
0.000000000001
 30
0.0
 11
326.418307086616
 21
-329.982283388572
 31
0.0
  0
LINE
  5
F1
330
B7
100
AcDbEntity
  8
32_color_black
100
AcDbLine
 10
326.418307086616
 20
-0.000000000001
 30
0.0
 11
-326.418307086626
 21
-329.982283388572
 31
0.0
  0
LWPOLYLINE
  5
F2
330
B7
100
AcDbEntity
  8
40_UMRISS
100
AcDbPolyline
 90
        4
 70
     1
 43
0.0
 10
-326.418307086611
 20
0.000000000001
 10
326.418307086616
 20
0.000000000001
 10
326.418307086616
 20
-329.982283388572
 10
-326.418307086611
 20
-329.982283388572
  0
ENDBLK
  5
2C5A
330
B7
100
AcDbEntity
  8
0
100
AcDbBlockEnd
  0
BLOCK
  5
2C5F
330
FE
100
AcDbEntity
  8
0
100
AcDbBlockBegin
  2
STANDARD_RZ_PR
 70
     2
 10
0.0
 20
0.0
 30
0.0
  3
STANDARD_RZ_PR
  1

  0
HATCH
  5
11D
330
FE
100
AcDbEntity
  8
0
100
AcDbHatch
 10
0.0
 20
0.0
 30
0.0
210
0.0
220
0.0
230
1.0
  2
SOLID
 70
     1
 71
     0
 91
        4
 92
        7
 72
     0
 73
     1
 93
        4
 10
-326.4183070866112
 20
0.0000000000011369
 10
-326.4183070866112
 20
-329.9779836250452
 10
328.0590986456044
 20
-329.9779836250452
 10
328.0590986455917
 20
0.0000000000038654
 97
        0
 92
       22
 72
     0
 73
     1
 93
        9
 10
63.44523592602116
 20
-60.49372612885668
 10
150.5379367708664
 20
-60.49372612885668
 10
257.0903297166986
 20
-161.7184994274128
 10
150.5379367708665
 20
-262.9432727259716
 10
63.44523592602116
 20
-262.9432727259679
 10
138.4265494805021
 20
-191.7110248492088
 10
18.45644779332895
 20
-191.7110248492088
 10
18.45644779332895
 20
-131.7259740056195
 10
138.4265494805094
 20
-131.7259740056195
 97
        0
 92
       22
 72
     1
 73
     1
 93
       46
 10
-76.17227789834044
 20
-136.8709992295896
 42
0.0
 10
-104.25568688113
 20
-136.8709992295896
 42
-0.2399524395792842
 10
-107.287691577128
 20
-135.3270278762274
 42
0.0
 10
-130.542887456965
 20
-103.3511335414381
 42
0.2399524395792833
 10
-145.7029109369615
 20
-95.63127677462376
 42
0.0
 10
-212.2326049179741
 20
-95.63127677462376
 42
0.2840790438404092
 10
-232.352202615976
 20
-108.0658719919629
 42
0.0
 10
-248.629299073652
 20
-140.6200649073141
 42
1.0
 10
-231.8629676586471
 20
-149.0032306148166
 42
0.0
 10
-215.5858712009779
 20
-116.449037699469
 42
-0.2840790438404418
 10
-212.2326049179772
 20
-114.3766051632454
 42
0.0
 10
-189.7382108516359
 20
-114.3766051632454
 42
0.0
 10
-203.5597649909132
 20
-152.0673701953252
 42
0.0687858006254981
 10
-206.8321992824213
 20
-167.1157506353802
 42
0.0
 10
-210.7281762729564
 20
-217.7634515122316
 42
-0.3919022311992417
 10
-214.466199023372
 20
-221.2249769783855
 42
0.0
 10
-263.6255617845537
 20
-221.2249769783855
 42
0.3631588356135515
 10
-294.9924956785818
 20
-247.4684367224543
 42
0.0
 10
-263.625561784551
 20
-247.4684367224561
 42
0.0
 10
-214.4661990233739
 20
-247.4684367224561
 42
0.3919022311992351
 10
-184.5620170200571
 20
-219.776232993233
 42
0.0
 10
-181.2234173657872
 20
-176.3744374878268
 42
0.0
 10
-141.261013849475
 20
-273.7803472622229
 42
0.3042679099072648
 10
-127.3869924453993
 20
-283.0845606608361
 42
0.0
 10
-109.0775649966
 20
-283.0845606608361
 42
0.0
 10
-156.3728768002399
 20
-167.8051362784292
 42
-0.1873489039227227
 10
-156.4242319135346
 20
-165.0913583761178
 42
0.0
 10
-142.8859513795958
 20
-128.1730679001891
 42
-0.5998762433504838
 10
-136.3340862192784
 20
-127.2587391500678
 42
0.0
 10
-122.4477150571095
 20
-146.3524994980441
 42
0.2399524395791912
 10
-104.2556868811259
 20
-155.6163276182112
 42
0.0
 10
-76.17227789834044
 20
-155.6163276182112
 42
0.0
 10
-76.17227789834044
 20
-290.5826920162851
 42
0.0
 10
-94.91760628696476
 20
-309.328020404904
 42
0.0
 10
-128.6591973864762
 20
-309.328020404904
 42
0.0
 10
-109.9138689978591
 20
-290.5826920162851
 42
0.0
 10
-129.9456733421635
 20
-290.5826920162851
 42
0.1989123673795757
 10
-140.5496323974874
 20
-294.9749956718473
 42
0.0
 10
-154.9026571305532
 20
-309.328020404904
 42
0.0
 10
-282.3708901731735
 20
-309.328020404904
 42
0.0
 10
-263.625561784551
 20
-290.5826920162851
 42
0.0
 10
-263.6255617845509
 20
-253.0920352390419
 42
0.0
 10
-301.1162185617978
 20
-253.0920352390419
 42
-0.414213562373095
 10
-263.625561784551
 20
-215.6013784617996
 42
0.0
 10
-263.625561784551
 20
-20.64996322013826
 42
0.0
 10
-76.17227789834588
 20
-20.64996322013827
 42
0.0
 97
        0
 92
        6
 72
     1
 73
     1
 93
        2
 10
-168.0243870026028
 20
-65.63875135283047
 42
-1.0
 10
-123.035598869912
 20
-65.63875135283047
 42
-1.0
 97
        0
 75
     1
 76
     1
 47
0.551072650145
 98
        4
 10
5.87295002037331
 20
-73.53701621187813
 10
5.87295002037331
 20
-73.53701621187813
 10
5.87295002037331
 20
-73.53701621187813
 10
5.87295002037331
 20
-73.53701621187813
450
        0
451
        0
460
0.0
461
0.0
452
        0
462
0.0
453
        2
463
0.0
 63
     5
421
      255
463
1.0
 63
     2
421
 16776960
470
LINEAR
1001
GradientColor1ACI
1070
     5
1001
GradientColor2ACI
1070
     2
1001
ACAD
1010
0.0
1020
0.0
1030
0.0
  0
HATCH
  5
11E
330
FE
100
AcDbEntity
  8
31_color_white
100
AcDbHatch
 10
0.0
 20
0.0
 30
0.0
210
0.0
220
0.0
230
1.0
  2
SOLID
 70
     1
 71
     1
 91
        3
 92
        7
 72
     0
 73
     1
 93
        9
 10
150.5379367708664
 20
-60.49372612885668
 10
63.44523592602116
 20
-60.49372612885668
 10
138.4265494805094
 20
-131.7259740056195
 10
18.45644779332895
 20
-131.7259740056195
 10
18.45644779332895
 20
-191.7110248492088
 10
138.4265494805021
 20
-191.7110248492088
 10
63.44523592602116
 20
-262.943272725968
 10
150.5379367708664
 20
-262.9432727259716
 10
257.0903297166986
 20
-161.7184994274128
 97
        1
330
11F
 92
        7
 72
     1
 73
     1
 93
       46
 10
-145.7029109369615
 20
-95.63127677462376
 42
-0.2399524395792819
 10
-130.542887456965
 20
-103.3511335414381
 42
0.0
 10
-107.287691577128
 20
-135.3270278762274
 42
0.2399524395792833
 10
-104.2556868811299
 20
-136.8709992295896
 42
0.0
 10
-76.17227789834044
 20
-136.8709992295896
 42
0.0
 10
-76.1722778983459
 20
-20.64996322013826
 42
0.0
 10
-263.6255617845509
 20
-20.64996322013826
 42
0.0
 10
-263.625561784551
 20
-215.6013784617996
 42
0.414213562373095
 10
-301.1162185617978
 20
-253.0920352390419
 42
0.0
 10
-263.625561784551
 20
-253.0920352390419
 42
0.0
 10
-263.625561784551
 20
-290.5826920162851
 42
0.0
 10
-282.3708901731735
 20
-309.328020404904
 42
0.0
 10
-154.9026571305532
 20
-309.328020404904
 42
0.0
 10
-140.5496323974874
 20
-294.9749956718473
 42
-0.198912367379576
 10
-129.9456733421634
 20
-290.5826920162851
 42
0.0
 10
-109.9138689978591
 20
-290.5826920162851
 42
0.0
 10
-128.6591973864762
 20
-309.328020404904
 42
0.0
 10
-94.91760628696474
 20
-309.328020404904
 42
0.0
 10
-76.17227789834044
 20
-290.5826920162851
 42
0.0
 10
-76.17227789834047
 20
-155.6163276182112
 42
0.0
 10
-104.2556868811258
 20
-155.6163276182112
 42
-0.2399524395791912
 10
-122.4477150571095
 20
-146.3524994980441
 42
0.0
 10
-136.3340862192784
 20
-127.2587391500678
 42
0.5998762433504935
 10
-142.8859513795958
 20
-128.173067900189
 42
0.0
 10
-156.4242319135346
 20
-165.0913583761178
 42
0.1873489039227227
 10
-156.3728768002399
 20
-167.8051362784292
 42
0.0
 10
-109.0775649966
 20
-283.0845606608361
 42
0.0
 10
-127.3869924453994
 20
-283.0845606608361
 42
-0.3042679099072649
 10
-141.261013849475
 20
-273.780347262223
 42
0.0
 10
-181.2234173657872
 20
-176.3744374878268
 42
0.0
 10
-184.5620170200571
 20
-219.776232993233
 42
-0.3919022311992351
 10
-214.4661990233739
 20
-247.4684367224561
 42
0.0
 10
-263.625561784551
 20
-247.4684367224561
 42
0.0
 10
-294.9924956785818
 20
-247.4684367224543
 42
-0.3631588356135517
 10
-263.6255617845537
 20
-221.2249769783855
 42
0.0
 10
-214.466199023372
 20
-221.2249769783855
 42
0.3919022311992419
 10
-210.7281762729564
 20
-217.7634515122316
 42
0.0
 10
-206.8321992824213
 20
-167.1157506353802
 42
-0.0687858006254979
 10
-203.5597649909132
 20
-152.0673701953252
 42
0.0
 10
-189.738210851636
 20
-114.3766051632454
 42
0.0
 10
-212.2326049179772
 20
-114.3766051632454
 42
0.2840790438404417
 10
-215.5858712009779
 20
-116.449037699469
 42
0.0
 10
-231.8629676586467
 20
-149.0032306148157
 42
-1.0
 10
-248.6292990736522
 20
-140.6200649073145
 42
0.0
 10
-232.352202615976
 20
-108.0658719919629
 42
-0.2840790438404093
 10
-212.2326049179741
 20
-95.63127677462376
 42
0.0
 97
        2
330
121
330
122
 92
       22
 72
     1
 73
     1
 93
        2
 10
-168.0243870026028
 20
-65.63875135283047
 42
-1.0
 10
-123.035598869912
 20
-65.63875135283047
 42
-1.0
 97
        1
330
124
 75
     1
 76
     1
 47
0.551072650145
 98
        3
 10
148.8930793292654
 20
-73.01080148104163
 10
-197.445021060176
 20
-73.56187378603633
 10
-197.445021060176
 20
-73.56187378603633
450
        0
451
        0
460
0.0
461
0.0
452
        0
462
0.0
453
        2
463
0.0
 63
     5
421
      255
463
1.0
 63
     2
421
 16776960
470
LINEAR
1001
GradientColor1ACI
1070
     5
1001
GradientColor2ACI
1070
     2
1001
ACAD
1010
0.0
1020
0.0
1030
0.0
  0
LWPOLYLINE
  5
11F
330
FE
100
AcDbEntity
  8
32_color_black
100
AcDbPolyline
 90
        9
 70
     1
 43
0.0
 10
150.537936770866
 20
-60.493726128857
 10
63.445235926021
 20
-60.493726128857
 10
138.426549480509
 20
-131.725974005619
 10
18.456447793329
 20
-131.725974005619
 10
18.456447793329
 20
-191.711024849209
 10
138.426549480502
 20
-191.711024849209
 10
63.445235926021
 20
-262.943272725968
 10
150.537936770866
 20
-262.943272725972
 10
257.090329716699
 20
-161.718499427413
  0
LWPOLYLINE
  5
120
330
FE
100
AcDbEntity
  8
32_color_black
100
AcDbPolyline
 90
        4
 70
     1
 43
0.0
 10
328.059098645604
 20
-329.977983625045
 10
328.059098645592
 20
0.000000000004
 10
-326.418307086611
 20
0.000000000001
 10
-326.418307086611
 20
-329.977983625045
  0
LWPOLYLINE
  5
121
330
FE
100
AcDbEntity
  8
32_color_black
100
AcDbPolyline
 90
       16
 70
     0
 43
0.0
 10
-76.17227789834
 20
-136.87099922959
 10
-76.172277898346
 20
-20.649963220138
 10
-263.625561784551
 20
-20.649963220138
 10
-263.625561784551
 20
-215.6013784618
 42
0.414213562373
 10
-301.116218561798
 20
-253.092035239042
 10
-263.625561784551
 20
-253.092035239042
 10
-263.625561784551
 20
-290.582692016285
 10
-282.370890173174
 20
-309.328020404904
 10
-154.902657130553
 20
-309.328020404904
 10
-140.549632397493
 20
-294.974995671853
 42
-0.19891236738
 10
-129.945673342163
 20
-290.582692016285
 10
-109.913868997859
 20
-290.582692016285
 10
-128.659197386476
 20
-309.328020404904
 10
-94.917606286965
 20
-309.328020404904
 10
-76.17227789834
 20
-290.582692016285
 10
-76.17227789834
 20
-155.616327618211
  0
LWPOLYLINE
  5
122
330
FE
100
AcDbEntity
  8
32_color_black
100
AcDbPolyline
 90
       32
 70
     0
 43
0.0
 10
-76.17227789834
 20
-136.87099922959
 10
-104.255686881128
 20
-136.87099922959
 42
-0.239952439579
 10
-107.287691577127
 20
-135.327027876229
 10
-130.542887456968
 20
-103.351133541434
 42
0.239952439579
 10
-145.702910936963
 20
-95.631276774624
 10
-212.232604917977
 20
-95.631276774624
 42
0.28407904384
 10
-232.352202615977
 20
-108.065871991965
 10
-248.629299073653
 20
-140.620064907316
 42
1.0
 10
-231.862967658648
 20
-149.003230614818
 10
-215.585871200978
 20
-116.449037699469
 42
-0.28407904384
 10
-212.232604917977
 20
-114.376605163245
 10
-189.738210851636
 20
-114.376605163245
 10
-203.559764990898
 20
-152.067370195284
 42
0.068785800626
 10
-206.832199282419
 20
-167.115750635345
 10
-210.728176272956
 20
-217.763451512232
 42
-0.391902231199
 10
-214.466199023373
 20
-221.224976978386
 10
-263.625561784551
 20
-221.224976978386
 42
0.363158835614
 10
-294.992495678582
 20
-247.468436722454
 10
-263.625561784551
 20
-247.468436722456
 10
-214.466199023373
 20
-247.468436722456
 42
0.391902231199
 10
-184.562017020057
 20
-219.776232993225
 10
-181.223417365787
 20
-176.374437487827
 10
-141.261013849475
 20
-273.780347262223
 42
0.304267909907
 10
-127.386992445399
 20
-283.084560660836
 10
-109.0775649966
 20
-283.084560660836
 10
-156.372876800237
 20
-167.805136278437
 42
-0.187348903923
 10
-156.424231913537
 20
-165.091358376126
 10
-142.885951379596
 20
-128.17306790019
 42
-0.599876243351
 10
-136.334086219278
 20
-127.258739150068
 10
-122.447715057115
 20
-146.352499498037
 42
0.239952439579
 10
-104.255686881128
 20
-155.616327618211
 10
-76.17227789834
 20
-155.616327618211
  0
HATCH
  5
123
330
FE
100
AcDbEntity
  8
0
100
AcDbHatch
 10
0.0
 20
0.0
 30
0.0
210
0.0
220
0.0
230
1.0
  2
SOLID
 70
     1
 71
     1
 91
        1
 92
        7
 72
     1
 73
     1
 93
        2
 10
-168.0243870026028
 20
-65.63875135283047
 42
1.0
 10
-123.035598869912
 20
-65.63875135283047
 42
1.0
 97
        1
330
124
 75
     1
 76
     1
 47
0.551072650145
 98
        1
 10
-145.6046038420661
 20
-59.78505755621447
450
        0
451
        0
460
0.0
461
0.0
452
        0
462
0.0
453
        2
463
0.0
 63
     5
421
      255
463
1.0
 63
     2
421
 16776960
470
LINEAR
1001
GradientColor1ACI
1070
     5
1001
GradientColor2ACI
1070
     2
1001
ACAD
1010
0.0
1020
0.0
1030
0.0
  0
CIRCLE
  5
124
330
FE
100
AcDbEntity
  8
32_color_black
100
AcDbCircle
 10
-145.529992936257
 20
-65.63875135283
 30
0.0
 40
22.49439406634541
  0
LWPOLYLINE
  5
125
330
FE
100
AcDbEntity
  8
40_UMRISS
100
AcDbPolyline
 90
        4
 70
     1
 43
0.0
 10
-326.418307086611
 20
0.000000000001
 10
328.059098645604
 20
0.000000000001
 10
328.059098645604
 20
-329.977983625045
 10
-326.418307086611
 20
-329.977983625045
  0
ENDBLK
  5
2C60
330
FE
100
AcDbEntity
  8
0
100
AcDbBlockEnd
  0
ENDSEC
  0
SECTION
  2
ENTITIES
  0
INSERT
  5
2FC4
330
1F
100
AcDbEntity
  8
10_
100
AcDbBlockReference
  2
STANDARD_RZ_PR
 10
620.0
 20
230.0
 30
0.0
  0
INSERT
  5
2FD4
330
1F
100
AcDbEntity
  8
10_yellow
100
AcDbBlockReference
 66
    1
  2
STANDARD_SL
 10
1650.0
 20
230.0
 30
0.0
  0
ATTRIB
  5
1018C
330
10184
100
AcDbEntity
  8
0
100
AcDbText
 10
37.312
 20
33.3717
 30
0.0
 40
0.0025
  1

 50
270.0
100
AcDbAttribute
  2
System
 70
    1
280
    0
 71
    1
 72
    0
 11
0.0
 21
0.0
 31
0.0
  0
SEQEND
  5
101A2
330
10184
100
AcDbEntity
  8
10_yellow
  0
INSERT
  5
2FD5
330
1F
100
AcDbEntity
  8
10_yellow
100
AcDbBlockReference
  2
QRCode
 10
1650.0
 20
230.0
 30
0.0
  0
ENDSEC
  0
SECTION
  2
OBJECTS
  0
ENDSEC
  0
SECTION
  2
THUMBNAILIMAGE
  0
ENDSEC
  0
SECTION
  2
ACDSDATA
  0
ENDSEC
  0
EOF
