  0
SECTION
  2
HEADER
  9
$ACADVER
  1
AC1032
  0
ENDSEC
  0
SECTION
  2
CLASSES
  0
CLASS
  0
ENDSEC
  0
SECTION
  2
TABLES
  0
TABLE
  2
LAYER
  5
2
330
0
100
AcDbSymbolTable
 70
    28
  0
LAYER
  5
10
330
2
100
AcDbSymbolTableRecord
100
AcDbLayerTableRecord
  2
0
 70
     0
 62
     7
  6
Continuous
370
    -3
390
F
347
47
348
0
  0
LAYER
  5
9E
330
2
100
AcDbSymbolTableRecord
100
AcDbLayerTableRecord
  2
31_color_white
 70
     0
 62
   255
  6
Continuous
370
    -3
390
F
347
47
348
0
  0
ENDTAB
  0
ENDSEC
  0
SECTION
  2
BLOCKS
  0
BLOCK
  5
2C59
330
B7
100
AcDbEntity
  8
0
100
AcDbBlockBegin
  2
SIMPLE_BLOCK
 70
     2
 10
0.0
 20
0.0
 30
0.0
  3
SIMPLE_BLOCK
  1

  0
HATCH
  5
E8
330
B7
100
AcDbEntity
  8
0
100
AcDbHatch
 10
0.0
 20
0.0
 30
0.0
210
0.0
220
0.0
230
1.0
  2
SOLID
 70
     1
 71
     0
 91
        2
 92
        1
 93
        3
 72
     1
 10
-0.000000000000739
 20
-164.9911416942843
 11
-326.4183070866112
 21
0.00000000000108
 72
     1
 10
-326.4183070866112
 20
0.0000000000011084
 11
-326.4183070866255
 21
-329.9822833885714
 72
     1
 10
-326.4183070866256
 20
-329.9822833885715
 11
-0.000000000000739
 21
-164.9911416942844
 97
        0
 92
        1
 93
        3
 72
     1
 10
326.4183070866164
 20
-329.9822833885715
 11
326.4183070866163
 21
-0.0000000000012506
 72
     1
 10
326.4183070866163
 20
-0.0000000000011653
 11
-0.000000000000739
 21
-164.9911416942844
 72
     1
 10
-0.0000000000006821
 20
-164.9911416942844
 11
326.4183070866163
 21
-329.9822833885715
 97
        0
 75
     1
 76
     1
 98
        2
 10
-201.7115752991709
 20
-201.914870628725
 10
118.6771251745169
 20
-182.3154832900236
450
        0
451
        0
460
0.0
461
0.0
452
        0
462
0.0
453
        2
463
0.0
 63
     5
421
      255
463
1.0
 63
     2
421
 16776960
470
LINEAR
1001
GradientColor1ACI
1070
     5
1001
GradientColor2ACI
1070
     2
1001
ACAD
1010
0.0
1020
0.0
1030
0.0
  0
HATCH
  5
EB
330
B7
100
AcDbEntity
  8
31_color_white
100
AcDbHatch
 10
0.0
 20
0.0
 30
0.0
210
0.0
220
0.0
230
1.0
  2
SOLID
 70
     1
 71
     0
 91
        2
 92
        1
 93
        3
 72
     1
 10
-326.4183070866112
 20
0.0000000000011084
 11
0.0000000000000568
 21
-164.9911416942839
 72
     1
 10
0.0
 20
-164.9911416942839
 11
326.4183070866163
 21
-0.0000000000011369
 72
     1
 10
326.4183070866163
 20
-0.0000000000011653
 11
-326.4183070866114
 21
0.0000000000010775
 97
        0
 92
        1
 93
        3
 72
     1
 10
326.4183070866163
 20
-329.9822833885715
 11
0.0000000000000568
 21
-164.991141694284
 72
     1
 10
0.0000000000000568
 20
-164.9911416942839
 11
-326.4183070866256
 21
-329.9822833885714
 72
     1
 10
-326.4183070866256
 20
-329.9822833885715
 11
326.4183070866163
 21
-329.9822833885715
 97
        0
 75
     1
 76
     1
 98
        2
 10
-62.94912079899098
 20
-46.57157940444418
 10
12.60739704665474
 20
-302.8154203338559
450
        0
451
        0
460
0.0
461
0.0
452
        0
462
0.0
453
        2
463
0.0
 63
     5
421
      255
463
1.0
 63
     2
421
 16776960
470
LINEAR
1001
GradientColor1ACI
1070
     5
1001
GradientColor2ACI
1070
     2
1001
ACAD
1010
0.0
1020
0.0
1030
0.0
  0
LWPOLYLINE
  5
ED
330
B7
100
AcDbEntity
  8
32_color_black
100
AcDbPolyline
 90
        4
 70
     1
 43
0.0
 10
-326.418307086626
 20
-329.982283388572
 10
-326.418307086611
 20
0.000000000001
 10
326.418307086616
 20
-0.000000000001
 10
326.418307086616
 20
-329.982283388572
  0
LINE
  5
F0
330
B7
100
AcDbEntity
  8
32_color_black
100
AcDbLine
 10
-326.418307086611
 20
0.000000000001
 30
0.0
 11
326.418307086616
 21
-329.982283388572
 31
0.0
  0
LINE
  5
F1
330
B7
100
AcDbEntity
  8
32_color_black
100
AcDbLine
 10
326.418307086616
 20
-0.000000000001
 30
0.0
 11
-326.418307086626
 21
-329.982283388572
 31
0.0
  0
LWPOLYLINE
  5
F2
330
B7
100
AcDbEntity
  8
40_UMRISS
100
AcDbPolyline
 90
        4
 70
     1
 43
0.0
 10
-326.418307086611
 20
0.000000000001
 10
326.418307086616
 20
0.000000000001
 10
326.418307086616
 20
-329.982283388572
 10
-326.418307086611
 20
-329.982283388572
  0
ENDBLK
  5
2C5A
330
B7
100
AcDbEntity
  8
0
100
AcDbBlockEnd
  0
ENDSEC
  0
SECTION
  2
ENTITIES
  0
INSERT
  5
2FD4
330
1F
100
AcDbEntity
  8
10_yellow
100
AcDbBlockReference
 66
    0
  2
SIMPLE_BLOCK
 10
400.0
 20
400.0
 30
0.0
  0
ENDSEC
  0
SECTION
  2
OBJECTS
  0
ENDSEC
  0
SECTION
  2
THUMBNAILIMAGE
  0
ENDSEC
  0
SECTION
  2
ACDSDATA
  0
ENDSEC
  0
EOF
